PathFileType	4	(X/Y/Z)	D:\TRACE\v60_Jaco2_6-2-23\BothDRS_Motion3_4-v60.trc
DataRate	CameraRate	NumFrames	NumMarkers	Units	OrigDataRate	OrigDataStartFrame	OrigNumFrames
100.00	100.00	      28	9	mm	100.00	876	      7000
Frame#	Time	front left toe			Front right toe			aft left toe			aft right toe			Arm			FL body			FR body			AL Body			AR Body			
		X1	Y1	Z1	X2	Y2	Z2	X3	Y3	Z3	X4	Y4	Z4	X5	Y5	Z5	X6	Y6	Z6	X7	Y7	Z7	X8	Y8	Z8	X9	Y9	Z9	

876	8.750	-204.39206	3.19174	-219.46988	175.50710	137.87944	-218.12813	-204.06920	156.84462	396.22153	163.34830	29.96403	403.02963	0.89462	1126.87512	-484.48462	-94.91434	498.05676	-393.90051	64.09740	500.99542	-391.60965	-104.24357	581.45276	547.00781	46.94802	575.59601	549.40393	
877	8.760	-204.08154	3.10971	-219.42569	174.46216	139.41890	-219.66502	-206.13432	159.40048	394.32431	163.56746	29.65307	402.86594	0.40336	1127.35913	-484.20831	-95.14092	498.22006	-393.95279	63.61943	501.44614	-391.96295	-103.57101	581.07800	546.75775	47.60403	575.34363	548.94000	
878	8.770	-203.77426	3.23036	-219.52925	173.88951	138.07938	-220.96239	-207.96947	158.50809	394.06436	163.64397	29.53438	402.80807	-0.59656	1128.01648	-484.04086	-95.80833	498.57217	-394.07773	62.88950	501.93500	-392.27676	-102.94661	580.85333	546.63019	48.03472	575.27728	548.64575	
879	8.780	-203.55521	3.17747	-219.41496	172.95763	134.85515	-221.65440	-209.33618	155.55194	393.59671	164.06714	29.51532	402.69708	-2.09168	1128.44482	-484.27817	-96.50205	499.00156	-394.34073	62.21030	502.40729	-392.66077	-102.56128	580.79395	546.41992	48.07444	575.22284	548.28674	
880	8.790	-203.05702	2.93375	-219.65004	171.87120	129.88968	-222.44563	-210.51656	151.78419	393.52448	164.43492	29.59166	402.66507	-3.61323	1128.62744	-484.59940	-96.98734	499.19574	-394.45374	61.53900	502.73236	-393.07538	-102.39322	580.73663	546.20081	48.41475	575.28625	548.02490	
881	8.800	-202.86435	2.87630	-219.70921	170.26178	123.97942	-223.53171	-211.97861	147.31400	393.55234	164.81296	29.60979	402.61462	-5.29490	1128.59949	-484.96555	-97.59422	499.44656	-394.70203	61.12087	502.94196	-393.25388	-102.01922	580.68585	546.16010	48.86853	575.36957	547.72876	
882	8.810	-202.71358	3.07471	-219.32565	168.69499	117.04263	-224.80804	-212.99612	141.57013	393.25024	165.37953	29.73791	402.67859	-6.84099	1128.59473	-485.37888	-98.14099	499.44244	-394.87659	59.92334	503.18338	-393.37207	-101.54306	580.67334	546.17462	49.21313	575.35999	547.40900	
883	8.820	-202.48808	2.97045	-219.16463	167.00497	109.53165	-226.10962	-213.94098	134.53571	392.57285	165.62741	29.68910	402.65259	-8.22618	1128.51733	-485.85980	-98.84223	499.45425	-395.14462	59.36927	503.17230	-393.55756	-101.13229	580.63928	546.02850	50.27169	575.29431	547.13043	
884	8.830	-202.39192	2.94328	-219.07729	165.51279	101.01156	-227.10126	-215.79253	127.26582	392.19379	165.75223	29.68345	402.63507	-8.98358	1128.32129	-485.98285	-99.64201	499.28479	-395.29242	59.28785	503.07956	-394.12527	-100.51369	580.50378	545.90509	51.04155	575.23907	546.78003	
885	8.840	-202.32826	2.84234	-219.08371	163.39761	91.52204	-228.32521	-217.22037	118.47372	391.93530	165.77817	29.64471	402.55743	-9.83950	1128.19495	-486.26956	-100.49656	499.31573	-395.39667	58.45253	503.03464	-394.53949	-100.34627	580.35217	545.59192	51.74042	575.11328	546.57495	
886	8.850	-202.20912	2.76033	-219.05820	161.33264	81.35306	-229.41174	-218.27321	108.70522	391.39951	165.84959	29.61188	402.45413	-10.61321	1128.17554	-486.46695	-101.12995	499.37100	-395.62521	57.64767	503.05756	-394.94644	-99.94052	580.14331	545.48376	52.32499	574.85461	546.19934	
887	8.860	-202.07059	2.67130	-219.02061	159.17023	70.45901	-230.71251	-219.54808	98.87025	391.34500	165.95683	29.61481	402.41934	-11.11088	1128.26538	-486.59253	-101.91772	499.40997	-395.86713	57.21815	502.94711	-395.30524	-99.55586	579.93292	545.38647	52.74913	574.68359	545.95526	
888	8.870	-201.95480	2.58246	-219.03566	157.11571	59.87309	-231.07965	-219.73807	89.36989	391.35306	166.17845	29.60166	402.26004	-11.77578	1128.47437	-486.61859	-102.50346	499.52826	-395.83301	56.53688	502.93182	-395.67194	-99.16784	579.80548	545.10724	53.08628	574.37292	545.53320	
889	8.880	-201.83427	2.48525	-219.02113	155.11182	50.39544	-231.71722	-219.61839	80.10157	391.11847	166.56113	29.59216	402.19580	-12.20411	1128.59802	-486.44992	-102.99133	499.38000	-395.84558	55.80455	503.06201	-395.99213	-98.93671	579.67542	544.82648	53.36963	574.11749	545.13818	
890	8.890	-201.66542	2.36533	-218.95032	154.24181	41.39635	-231.92943	-220.64816	71.74032	391.00073	166.87698	29.48256	402.04367	-12.84513	1128.96777	-486.52499	-103.76371	499.48996	-396.15674	54.42049	503.20126	-396.26794	-98.65571	579.51276	544.63397	53.73367	573.89014	544.78119	
891	8.900	-201.49393	2.31533	-218.86604	152.93033	32.86944	-232.09555	-220.73268	63.03775	391.04807	167.22652	29.58171	401.97318	-13.11043	1129.10498	-486.61240	-104.63654	499.47174	-396.35873	53.47027	503.22025	-396.84171	-98.09738	579.32056	544.47961	54.22305	573.72052	544.52686	
892	8.910	-201.42336	2.30350	-218.88187	152.47163	25.64228	-232.06866	-221.64555	56.03824	391.44943	167.43034	29.61212	401.97537	-13.20373	1129.10571	-486.72369	-105.52469	499.60147	-396.78946	53.30574	503.07248	-397.49612	-97.69845	579.04614	544.21234	54.62466	573.36151	544.17560	
893	8.920	-201.36763	2.29889	-218.88431	152.60162	18.77599	-231.05701	-221.50288	49.37216	392.17905	167.68733	29.71118	401.95203	-13.40560	1129.05261	-486.94473	-106.41953	499.83484	-397.11417	52.42772	503.12704	-397.83197	-97.59837	578.89520	544.02917	54.98827	572.94128	543.79633	
894	8.930	-201.29112	2.44844	-219.00665	152.18021	12.65539	-230.83099	-220.86543	42.46300	392.91187	167.90274	29.78333	401.94321	-13.58804	1128.99060	-487.19601	-107.07297	500.00394	-397.25198	51.79675	503.10428	-398.01303	-97.04286	578.73370	543.81494	54.88882	572.48248	542.97052	
895	8.940	-201.13988	2.36912	-218.99944	152.51894	7.25658	-230.80722	-221.14999	36.12807	393.23032	168.13034	29.70492	402.01569	-14.02296	1129.04382	-487.56625	-107.54259	500.04642	-397.40817	51.35012	503.01810	-398.26715	-96.88621	578.56915	543.76385	55.00826	572.42719	543.02252	
896	8.950	-200.92488	2.12349	-218.90810	152.84006	5.98741	-232.33231	-221.27695	34.00480	391.49838	168.23093	29.63609	401.99130	-14.44856	1128.91345	-487.56256	-108.24383	500.11322	-397.61322	50.73169	502.94662	-398.68063	-96.65295	578.44958	543.64648	55.41256	572.28949	542.70569	
897	8.960	-200.72511	2.07514	-218.82904	154.07764	5.23208	-232.49135	-222.46848	32.38339	391.56451	168.13072	29.70030	401.85315	-14.90057	1128.93970	-487.61444	-108.82025	500.40341	-397.68079	50.06344	503.24698	-399.02579	-96.59977	578.79797	543.46393	55.61709	572.73541	542.41962	
898	8.970	-200.58527	2.45481	-218.75993	153.87192	5.26153	-232.24274	-222.45345	31.77726	392.49982	168.03978	29.84895	401.82172	-15.83088	1129.50610	-487.76712	-109.52438	500.92279	-397.64923	48.67574	503.87430	-399.12198	-95.91227	580.31567	543.47491	56.00397	573.85272	542.14246	
899	8.980	-200.44899	3.05583	-218.82420	153.07118	6.00809	-231.92209	-222.23767	31.92349	392.41946	167.89317	30.12284	401.37613	-16.56143	1130.59534	-488.55960	-110.19498	501.25439	-397.53928	48.58382	504.12234	-399.40475	-95.63544	582.25214	543.28522	56.44350	575.53229	541.86456	
900	8.990	-200.11021	6.78016	-218.31894	152.94112	4.81771	-230.96904	-221.87024	31.37512	393.17435	166.15961	32.31052	402.57736	-16.97649	1131.28198	-489.41864	-110.98861	501.69650	-397.39783	47.79272	504.64206	-399.59363	-94.85231	583.60236	543.14117	57.01657	576.58862	541.49957	
901	9.000	-196.59882	10.88107	-215.51286	152.72214	4.74211	-232.35741	-221.91795	31.17680	392.79230	163.85500	36.11579	406.23325	-17.27550	1131.67761	-490.42685	-111.87459	502.65863	-398.11084	46.28258	505.59720	-400.10809	-94.25175	583.72778	542.90002	58.31751	577.09540	541.51349	
902	9.010	-192.83095	15.22774	-211.74234	152.70613	4.52251	-232.20543	-221.43326	30.78885	392.61942	159.56702	44.24219	407.65671	-17.94594	1131.73608	-491.17868	-112.42661	503.38397	-398.68619	46.53782	505.99905	-400.92902	-93.78425	583.76849	542.54901	57.75620	576.82953	540.25690	
903	9.020	-192.02156	27.02067	-211.92299	154.63029	4.91088	-231.85017	-221.30347	30.71639	392.68143	157.49062	53.33290	407.74789	-18.57510	1131.91675	-491.60284	-112.91798	503.57233	-399.16174	46.26793	506.21133	-401.39557	-93.57308	583.73334	541.78815	58.51313	576.73804	539.72369	
